<svg xmlns="http://www.w3.org/2000/svg" xmlns:xlink="http://www.w3.org/1999/xlink" width="200" zoomAndPan="magnify" viewBox="0 0 150 37.5" height="50" preserveAspectRatio="xMidYMid meet" version="1.0"><defs><g/><clipPath id="846ec90c20"><path d="M 0.988281 0 L 149.011719 0 L 149.011719 37.007812 L 0.988281 37.007812 Z M 0.988281 0 " clip-rule="nonzero"/></clipPath><clipPath id="adb0af02a6"><path d="M 4.6875 3.699219 L 32 3.699219 L 32 31 L 4.6875 31 Z M 4.6875 3.699219 " clip-rule="nonzero"/></clipPath><clipPath id="d7dbea46da"><path d="M 7 6 L 34.292969 6 L 34.292969 33.304688 L 7 33.304688 Z M 7 6 " clip-rule="nonzero"/></clipPath><clipPath id="36f698ff38"><path d="M 131 5 L 145.3125 5 L 145.3125 18.503906 L 131 18.503906 Z M 131 5 " clip-rule="nonzero"/></clipPath><clipPath id="3d4ec24e6a"><path d="M 130.511719 3.699219 L 144 3.699219 L 144 18 L 130.511719 18 Z M 130.511719 3.699219 " clip-rule="nonzero"/></clipPath></defs><g clip-path="url(#846ec90c20)"><path fill="#ffffff" d="M 0.988281 0 L 149.011719 0 L 149.011719 37.007812 L 0.988281 37.007812 Z M 0.988281 0 " fill-opacity="1" fill-rule="nonzero"/><path fill="#ffffff" d="M 0.988281 0 L 149.011719 0 L 149.011719 37.007812 L 0.988281 37.007812 Z M 0.988281 0 " fill-opacity="1" fill-rule="nonzero"/></g><g fill="#78c2ad" fill-opacity="1"><g transform="translate(15.483012, 24.054276)"><g><path d="M 1.671875 -12.4375 L 3.984375 -12.4375 L 3.984375 -1.953125 L 10.484375 -1.953125 L 10.484375 0 L 1.671875 0 Z M 1.671875 -12.4375 "/></g></g></g><g fill="#78c2ad" fill-opacity="1"><g transform="translate(26.123115, 24.054276)"><g><path d="M 10.375 -4.6875 C 10.375 -4.53125 10.363281 -4.3125 10.34375 -4.03125 L 2.890625 -4.03125 C 3.023438 -3.332031 3.367188 -2.78125 3.921875 -2.375 C 4.472656 -1.96875 5.15625 -1.765625 5.96875 -1.765625 C 7.007812 -1.765625 7.867188 -2.109375 8.546875 -2.796875 L 9.734375 -1.421875 C 9.304688 -0.910156 8.765625 -0.523438 8.109375 -0.265625 C 7.460938 -0.00390625 6.734375 0.125 5.921875 0.125 C 4.878906 0.125 3.957031 -0.0820312 3.15625 -0.5 C 2.363281 -0.914062 1.75 -1.492188 1.3125 -2.234375 C 0.882812 -2.972656 0.671875 -3.8125 0.671875 -4.75 C 0.671875 -5.664062 0.878906 -6.492188 1.296875 -7.234375 C 1.722656 -7.972656 2.304688 -8.550781 3.046875 -8.96875 C 3.796875 -9.382812 4.640625 -9.59375 5.578125 -9.59375 C 6.503906 -9.59375 7.332031 -9.390625 8.0625 -8.984375 C 8.789062 -8.578125 9.359375 -8 9.765625 -7.25 C 10.171875 -6.507812 10.375 -5.65625 10.375 -4.6875 Z M 5.578125 -7.8125 C 4.867188 -7.8125 4.265625 -7.601562 3.765625 -7.1875 C 3.273438 -6.769531 2.976562 -6.207031 2.875 -5.5 L 8.265625 -5.5 C 8.171875 -6.1875 7.878906 -6.742188 7.390625 -7.171875 C 6.898438 -7.597656 6.296875 -7.8125 5.578125 -7.8125 Z M 5.578125 -7.8125 "/></g></g></g><g fill="#78c2ad" fill-opacity="1"><g transform="translate(37.171772, 24.054276)"><g><path d="M 4.390625 0.125 C 3.617188 0.125 2.863281 0.0234375 2.125 -0.171875 C 1.394531 -0.378906 0.8125 -0.632812 0.375 -0.9375 L 1.21875 -2.625 C 1.644531 -2.34375 2.15625 -2.113281 2.75 -1.9375 C 3.351562 -1.769531 3.945312 -1.6875 4.53125 -1.6875 C 5.851562 -1.6875 6.515625 -2.035156 6.515625 -2.734375 C 6.515625 -3.066406 6.34375 -3.296875 6 -3.421875 C 5.664062 -3.554688 5.128906 -3.679688 4.390625 -3.796875 C 3.609375 -3.921875 2.96875 -4.054688 2.46875 -4.203125 C 1.976562 -4.359375 1.550781 -4.628906 1.1875 -5.015625 C 0.832031 -5.398438 0.65625 -5.9375 0.65625 -6.625 C 0.65625 -7.53125 1.03125 -8.25 1.78125 -8.78125 C 2.53125 -9.320312 3.546875 -9.59375 4.828125 -9.59375 C 5.484375 -9.59375 6.132812 -9.519531 6.78125 -9.375 C 7.4375 -9.226562 7.972656 -9.03125 8.390625 -8.78125 L 7.53125 -7.09375 C 6.726562 -7.5625 5.820312 -7.796875 4.8125 -7.796875 C 4.164062 -7.796875 3.671875 -7.695312 3.328125 -7.5 C 2.992188 -7.3125 2.828125 -7.054688 2.828125 -6.734375 C 2.828125 -6.378906 3.003906 -6.125 3.359375 -5.96875 C 3.722656 -5.820312 4.285156 -5.6875 5.046875 -5.5625 C 5.804688 -5.445312 6.425781 -5.3125 6.90625 -5.15625 C 7.394531 -5 7.8125 -4.734375 8.15625 -4.359375 C 8.507812 -3.992188 8.6875 -3.476562 8.6875 -2.8125 C 8.6875 -1.914062 8.300781 -1.203125 7.53125 -0.671875 C 6.757812 -0.140625 5.710938 0.125 4.390625 0.125 Z M 4.390625 0.125 "/></g></g></g><g fill="#78c2ad" fill-opacity="1"><g transform="translate(46.319775, 24.054276)"><g><path d="M 4.390625 0.125 C 3.617188 0.125 2.863281 0.0234375 2.125 -0.171875 C 1.394531 -0.378906 0.8125 -0.632812 0.375 -0.9375 L 1.21875 -2.625 C 1.644531 -2.34375 2.15625 -2.113281 2.75 -1.9375 C 3.351562 -1.769531 3.945312 -1.6875 4.53125 -1.6875 C 5.851562 -1.6875 6.515625 -2.035156 6.515625 -2.734375 C 6.515625 -3.066406 6.34375 -3.296875 6 -3.421875 C 5.664062 -3.554688 5.128906 -3.679688 4.390625 -3.796875 C 3.609375 -3.921875 2.96875 -4.054688 2.46875 -4.203125 C 1.976562 -4.359375 1.550781 -4.628906 1.1875 -5.015625 C 0.832031 -5.398438 0.65625 -5.9375 0.65625 -6.625 C 0.65625 -7.53125 1.03125 -8.25 1.78125 -8.78125 C 2.53125 -9.320312 3.546875 -9.59375 4.828125 -9.59375 C 5.484375 -9.59375 6.132812 -9.519531 6.78125 -9.375 C 7.4375 -9.226562 7.972656 -9.03125 8.390625 -8.78125 L 7.53125 -7.09375 C 6.726562 -7.5625 5.820312 -7.796875 4.8125 -7.796875 C 4.164062 -7.796875 3.671875 -7.695312 3.328125 -7.5 C 2.992188 -7.3125 2.828125 -7.054688 2.828125 -6.734375 C 2.828125 -6.378906 3.003906 -6.125 3.359375 -5.96875 C 3.722656 -5.820312 4.285156 -5.6875 5.046875 -5.5625 C 5.804688 -5.445312 6.425781 -5.3125 6.90625 -5.15625 C 7.394531 -5 7.8125 -4.734375 8.15625 -4.359375 C 8.507812 -3.992188 8.6875 -3.476562 8.6875 -2.8125 C 8.6875 -1.914062 8.300781 -1.203125 7.53125 -0.671875 C 6.757812 -0.140625 5.710938 0.125 4.390625 0.125 Z M 4.390625 0.125 "/></g></g></g><g fill="#78c2ad" fill-opacity="1"><g transform="translate(55.467779, 24.054276)"><g><path d="M 5.71875 0.125 C 4.757812 0.125 3.894531 -0.0820312 3.125 -0.5 C 2.351562 -0.914062 1.75 -1.492188 1.3125 -2.234375 C 0.882812 -2.972656 0.671875 -3.8125 0.671875 -4.75 C 0.671875 -5.675781 0.882812 -6.503906 1.3125 -7.234375 C 1.75 -7.972656 2.351562 -8.550781 3.125 -8.96875 C 3.894531 -9.382812 4.757812 -9.59375 5.71875 -9.59375 C 6.6875 -9.59375 7.554688 -9.382812 8.328125 -8.96875 C 9.097656 -8.550781 9.695312 -7.972656 10.125 -7.234375 C 10.5625 -6.503906 10.78125 -5.675781 10.78125 -4.75 C 10.78125 -3.8125 10.5625 -2.972656 10.125 -2.234375 C 9.695312 -1.492188 9.097656 -0.914062 8.328125 -0.5 C 7.554688 -0.0820312 6.6875 0.125 5.71875 0.125 Z M 5.71875 -1.78125 C 6.539062 -1.78125 7.21875 -2.050781 7.75 -2.59375 C 8.28125 -3.132812 8.546875 -3.851562 8.546875 -4.75 C 8.546875 -5.632812 8.28125 -6.347656 7.75 -6.890625 C 7.21875 -7.429688 6.539062 -7.703125 5.71875 -7.703125 C 4.90625 -7.703125 4.234375 -7.429688 3.703125 -6.890625 C 3.171875 -6.347656 2.90625 -5.632812 2.90625 -4.75 C 2.90625 -3.851562 3.171875 -3.132812 3.703125 -2.59375 C 4.234375 -2.050781 4.90625 -1.78125 5.71875 -1.78125 Z M 5.71875 -1.78125 "/></g></g></g><g fill="#78c2ad" fill-opacity="1"><g transform="translate(66.924978, 24.054276)"><g><path d="M 6.84375 -9.59375 C 8.039062 -9.59375 9 -9.242188 9.71875 -8.546875 C 10.4375 -7.847656 10.796875 -6.8125 10.796875 -5.4375 L 10.796875 0 L 8.578125 0 L 8.578125 -5.15625 C 8.578125 -5.976562 8.378906 -6.597656 7.984375 -7.015625 C 7.597656 -7.441406 7.046875 -7.65625 6.328125 -7.65625 C 5.503906 -7.65625 4.851562 -7.410156 4.375 -6.921875 C 3.90625 -6.429688 3.671875 -5.722656 3.671875 -4.796875 L 3.671875 0 L 1.453125 0 L 1.453125 -9.484375 L 3.578125 -9.484375 L 3.578125 -8.265625 C 3.941406 -8.703125 4.398438 -9.03125 4.953125 -9.25 C 5.515625 -9.476562 6.144531 -9.59375 6.84375 -9.59375 Z M 6.84375 -9.59375 "/></g></g></g><g fill="#78c2ad" fill-opacity="1"><g transform="translate(79.092709, 24.054276)"><g><path d="M 10.484375 -6.46875 C 11.171875 -6.238281 11.710938 -5.859375 12.109375 -5.328125 C 12.515625 -4.804688 12.71875 -4.15625 12.71875 -3.375 C 12.71875 -2.300781 12.300781 -1.46875 11.46875 -0.875 C 10.644531 -0.289062 9.441406 0 7.859375 0 L 1.671875 0 L 1.671875 -12.4375 L 7.5 -12.4375 C 8.96875 -12.4375 10.097656 -12.148438 10.890625 -11.578125 C 11.679688 -11.003906 12.078125 -10.210938 12.078125 -9.203125 C 12.078125 -8.585938 11.9375 -8.039062 11.65625 -7.5625 C 11.375 -7.09375 10.984375 -6.726562 10.484375 -6.46875 Z M 3.984375 -10.625 L 3.984375 -7.1875 L 7.25 -7.1875 C 8.050781 -7.1875 8.664062 -7.332031 9.09375 -7.625 C 9.53125 -7.914062 9.75 -8.34375 9.75 -8.90625 C 9.75 -9.46875 9.53125 -9.894531 9.09375 -10.1875 C 8.664062 -10.476562 8.050781 -10.625 7.25 -10.625 Z M 7.703125 -1.8125 C 9.492188 -1.8125 10.390625 -2.410156 10.390625 -3.609375 C 10.390625 -4.804688 9.492188 -5.40625 7.703125 -5.40625 L 3.984375 -5.40625 L 3.984375 -1.8125 Z M 7.703125 -1.8125 "/></g></g></g><g fill="#78c2ad" fill-opacity="1"><g transform="translate(92.610432, 24.054276)"><g><path d="M 5.71875 0.125 C 4.757812 0.125 3.894531 -0.0820312 3.125 -0.5 C 2.351562 -0.914062 1.75 -1.492188 1.3125 -2.234375 C 0.882812 -2.972656 0.671875 -3.8125 0.671875 -4.75 C 0.671875 -5.675781 0.882812 -6.503906 1.3125 -7.234375 C 1.75 -7.972656 2.351562 -8.550781 3.125 -8.96875 C 3.894531 -9.382812 4.757812 -9.59375 5.71875 -9.59375 C 6.6875 -9.59375 7.554688 -9.382812 8.328125 -8.96875 C 9.097656 -8.550781 9.695312 -7.972656 10.125 -7.234375 C 10.5625 -6.503906 10.78125 -5.675781 10.78125 -4.75 C 10.78125 -3.8125 10.5625 -2.972656 10.125 -2.234375 C 9.695312 -1.492188 9.097656 -0.914062 8.328125 -0.5 C 7.554688 -0.0820312 6.6875 0.125 5.71875 0.125 Z M 5.71875 -1.78125 C 6.539062 -1.78125 7.21875 -2.050781 7.75 -2.59375 C 8.28125 -3.132812 8.546875 -3.851562 8.546875 -4.75 C 8.546875 -5.632812 8.28125 -6.347656 7.75 -6.890625 C 7.21875 -7.429688 6.539062 -7.703125 5.71875 -7.703125 C 4.90625 -7.703125 4.234375 -7.429688 3.703125 -6.890625 C 3.171875 -6.347656 2.90625 -5.632812 2.90625 -4.75 C 2.90625 -3.851562 3.171875 -3.132812 3.703125 -2.59375 C 4.234375 -2.050781 4.90625 -1.78125 5.71875 -1.78125 Z M 5.71875 -1.78125 "/></g></g></g><g fill="#78c2ad" fill-opacity="1"><g transform="translate(104.067632, 24.054276)"><g><path d="M 5.078125 -9.59375 C 6.472656 -9.59375 7.539062 -9.253906 8.28125 -8.578125 C 9.019531 -7.910156 9.390625 -6.90625 9.390625 -5.5625 L 9.390625 0 L 7.296875 0 L 7.296875 -1.15625 C 7.023438 -0.738281 6.640625 -0.421875 6.140625 -0.203125 C 5.640625 0.015625 5.03125 0.125 4.3125 0.125 C 3.601562 0.125 2.984375 0.00390625 2.453125 -0.234375 C 1.921875 -0.484375 1.507812 -0.820312 1.21875 -1.25 C 0.925781 -1.6875 0.78125 -2.175781 0.78125 -2.71875 C 0.78125 -3.570312 1.097656 -4.253906 1.734375 -4.765625 C 2.367188 -5.285156 3.363281 -5.546875 4.71875 -5.546875 L 7.171875 -5.546875 L 7.171875 -5.6875 C 7.171875 -6.351562 6.972656 -6.863281 6.578125 -7.21875 C 6.179688 -7.570312 5.59375 -7.75 4.8125 -7.75 C 4.28125 -7.75 3.753906 -7.664062 3.234375 -7.5 C 2.722656 -7.332031 2.289062 -7.097656 1.9375 -6.796875 L 1.0625 -8.421875 C 1.5625 -8.796875 2.160156 -9.082031 2.859375 -9.28125 C 3.554688 -9.488281 4.296875 -9.59375 5.078125 -9.59375 Z M 4.78125 -1.5 C 5.332031 -1.5 5.820312 -1.625 6.25 -1.875 C 6.6875 -2.125 6.992188 -2.488281 7.171875 -2.96875 L 7.171875 -4.0625 L 4.890625 -4.0625 C 3.609375 -4.0625 2.96875 -3.644531 2.96875 -2.8125 C 2.96875 -2.40625 3.125 -2.082031 3.4375 -1.84375 C 3.757812 -1.613281 4.207031 -1.5 4.78125 -1.5 Z M 4.78125 -1.5 "/></g></g></g><g fill="#78c2ad" fill-opacity="1"><g transform="translate(114.849841, 24.054276)"><g><path d="M 3.578125 -8.09375 C 4.210938 -9.09375 5.335938 -9.59375 6.953125 -9.59375 L 6.953125 -7.484375 C 6.753906 -7.515625 6.582031 -7.53125 6.4375 -7.53125 C 5.570312 -7.53125 4.894531 -7.273438 4.40625 -6.765625 C 3.914062 -6.265625 3.671875 -5.539062 3.671875 -4.59375 L 3.671875 0 L 1.453125 0 L 1.453125 -9.484375 L 3.578125 -9.484375 Z M 3.578125 -8.09375 "/></g></g></g><g fill="#78c2ad" fill-opacity="1"><g transform="translate(122.310345, 24.054276)"><g><path d="M 10.75 -13.1875 L 10.75 0 L 8.609375 0 L 8.609375 -1.21875 C 8.242188 -0.769531 7.789062 -0.429688 7.25 -0.203125 C 6.71875 0.015625 6.125 0.125 5.46875 0.125 C 4.5625 0.125 3.742188 -0.0703125 3.015625 -0.46875 C 2.285156 -0.875 1.710938 -1.445312 1.296875 -2.1875 C 0.878906 -2.925781 0.671875 -3.78125 0.671875 -4.75 C 0.671875 -5.707031 0.878906 -6.550781 1.296875 -7.28125 C 1.710938 -8.019531 2.285156 -8.585938 3.015625 -8.984375 C 3.742188 -9.390625 4.5625 -9.59375 5.46875 -9.59375 C 6.09375 -9.59375 6.664062 -9.484375 7.1875 -9.265625 C 7.71875 -9.054688 8.164062 -8.738281 8.53125 -8.3125 L 8.53125 -13.1875 Z M 5.734375 -1.78125 C 6.265625 -1.78125 6.742188 -1.898438 7.171875 -2.140625 C 7.597656 -2.378906 7.9375 -2.722656 8.1875 -3.171875 C 8.4375 -3.628906 8.5625 -4.15625 8.5625 -4.75 C 8.5625 -5.332031 8.4375 -5.847656 8.1875 -6.296875 C 7.9375 -6.753906 7.597656 -7.101562 7.171875 -7.34375 C 6.742188 -7.582031 6.265625 -7.703125 5.734375 -7.703125 C 5.203125 -7.703125 4.722656 -7.582031 4.296875 -7.34375 C 3.867188 -7.101562 3.53125 -6.753906 3.28125 -6.296875 C 3.03125 -5.847656 2.90625 -5.332031 2.90625 -4.75 C 2.90625 -4.15625 3.03125 -3.628906 3.28125 -3.171875 C 3.53125 -2.722656 3.867188 -2.378906 4.296875 -2.140625 C 4.722656 -1.898438 5.203125 -1.78125 5.734375 -1.78125 Z M 5.734375 -1.78125 "/></g></g></g><g clip-path="url(#adb0af02a6)"><path fill="#78c2ad" d="M 31.648438 30.398438 C 31.648438 30.542969 31.53125 30.664062 31.386719 30.664062 L 5.105469 30.664062 C 4.875 30.664062 4.6875 30.476562 4.6875 30.246094 L 4.6875 3.964844 C 4.6875 3.820312 4.804688 3.699219 4.953125 3.699219 C 5.097656 3.699219 5.214844 3.820312 5.214844 3.964844 L 5.214844 30.132812 L 31.386719 30.132812 C 31.53125 30.132812 31.648438 30.253906 31.648438 30.398438 Z M 31.648438 30.398438 " fill-opacity="1" fill-rule="nonzero"/></g><g clip-path="url(#d7dbea46da)"><path fill="#78c2ad" d="M 34.292969 33.042969 C 34.292969 33.1875 34.175781 33.304688 34.027344 33.304688 L 7.75 33.304688 C 7.519531 33.304688 7.332031 33.117188 7.332031 32.886719 L 7.332031 6.609375 C 7.332031 6.460938 7.449219 6.34375 7.59375 6.34375 C 7.742188 6.34375 7.859375 6.460938 7.859375 6.609375 L 7.859375 32.777344 L 34.027344 32.777344 C 34.175781 32.777344 34.292969 32.894531 34.292969 33.042969 Z M 34.292969 33.042969 " fill-opacity="1" fill-rule="nonzero"/></g><g clip-path="url(#36f698ff38)"><path fill="#78c2ad" d="M 131.832031 5.15625 C 131.832031 5.082031 131.890625 5.023438 131.964844 5.023438 L 145.101562 5.023438 C 145.21875 5.023438 145.3125 5.117188 145.3125 5.230469 L 145.3125 18.371094 C 145.3125 18.445312 145.253906 18.503906 145.179688 18.503906 C 145.105469 18.503906 145.046875 18.445312 145.046875 18.371094 L 145.046875 5.285156 L 131.964844 5.285156 C 131.890625 5.285156 131.832031 5.226562 131.832031 5.15625 Z M 131.832031 5.15625 " fill-opacity="1" fill-rule="nonzero"/></g><g clip-path="url(#3d4ec24e6a)"><path fill="#78c2ad" d="M 130.511719 3.832031 C 130.511719 3.761719 130.570312 3.699219 130.640625 3.699219 L 143.78125 3.699219 C 143.898438 3.699219 143.992188 3.792969 143.992188 3.910156 L 143.992188 17.050781 C 143.992188 17.121094 143.933594 17.179688 143.859375 17.179688 C 143.785156 17.179688 143.726562 17.121094 143.726562 17.050781 L 143.726562 3.964844 L 130.640625 3.964844 C 130.570312 3.964844 130.511719 3.90625 130.511719 3.832031 Z M 130.511719 3.832031 " fill-opacity="1" fill-rule="nonzero"/></g></svg>